<svg data-v-d3f97b9e="" xmlns="http://www.w3.org/2000/svg" viewBox="0 0 61.356004089160066 60"><!----><!----><!----><!----><g data-v-d3f97b9e="" id="30d2c73a-7f09-4d55-8e77-707a5ed0eddc" transform="matrix(0.638977587223053,0,0,0.638977587223053,-1.2658450603485107,-1.9808320999145508)" stroke="none" fill="white"><path d="M94.6 70.1c-.4-1.5.4-3.7.4-3.7-.5.1-1.7 1.5-2.4 2.4-1.6-.9-2.9-1.5-4-1.8-.3-1.5.5-3.3.5-3.3-.7.1-2.4 2.4-2.8 2.9-1.4-.2-2.6-.2-4.2-.4-.5-1.9.5-4.6.5-4.6-.9.1-3.2 3.2-3.6 3.7-.1 0-.1 0-.2-.1-.9-.3-1.6-.7-2.4-1.2-.1-1.9 1.3-4.3 1.3-4.3-.7 0-2.3 1.4-3.3 2.4-.7-.8-1.4-1.7-2.2-2.9 0 0 1.8 4.8-4.8 9.9 0 0 8.3 3.2 16.1 3.2 7.7 0 9.3 2 10.3 6 .4 1.4-.4 3.4-1.4 5.3l-1.8.4s-3.8.8-4.4.8c-.6 0-3.4 1.8-3.4 1.8l3.2.4-2.3 1.5c-.9.6-1.6 1.3-2.1 2.2l-1 1.8 4-1.6-3.4 6.1s6-3.6 7.1-4.8l-1.2 4s3.2-2.4 3.6-4.4c.2-1 .6-2.2.6-2.2l1.2 3s.6-3.4.6-4.8v-2.2c4.5-4.3 7.6-11.1 1.5-15.5zM52.2 82.6s1.8-2 1.8-3.2c0-1.1-1.8-3.4-1.8-3.4l-1.8-1.4c-1.8-1.4-3-5.2-3-5.2L43 70l-1.6.2s2.4 5.4 5 8.1c2.6 2.8-2 6.7-3.8 6.3-1.8-.4-5 1.2-5 1.2-4.4-.2-2.6 3-2.6 3s.4-1.8 2.2-.6c1.8 1.2 3.2-.4 3.2-.4l4 .6c1.6-2 5.4-4.4 5.4-4.4l2.4-1.4zM23.1 71.4s-.7 3-1.6 4.5c-.9 1.4-4.1 4.5-4.1 5.6s.4 3.4 1.1 3.6 2.3 1.6 3.2-.4c0 0-2.1-.4-2.1-2 0 0 2.1-1.3 2.1-2.1 0-.9 1.3 0 1.6.9.4.9.5 2.7.5 3.2s1.3 2.3 1.3 2.3l.2-3.8s2.1-2.1.7-4.1c-1.4-2 2.5-6.6 2.5-6.6s-4.4-.4-5.4-1.1z"></path><path d="M64.5 80.6s2.2-1.6 1.8-3.4c-.4-1.8-3.6-1.8-3.8-5-.2-3.2 3.8-4.4 5.6-6.5 1.8-2.2 7.2-9-7.3-15.4-.8-.3-1.9-.6-3.4-.9 1.8-3.4 7.7-5.5 9.3-5.1 2 .6 2.8 4.8 2.8 4.8 1.8-2 .4-4.8.4-4.8 2.6-.6 5.8 5.2 5.8 5.2 3 2.2 1 6.1 1 6.1 3.6 0 2.4-6.9 2.4-6.9s-1-7.1 2.2-7.5c3.2-.4 6.3 2.2 6.3 2.2 1.8 2.8-3.2 5-3.2 5 6.9 1.2 5.8-6.7 5.8-6.7l-6.9-10.2S67.9 17.1 63.1 12.7c-4.8-4.4-21-4.2-23.6-4.2s-3.4.5-3.4-.8 4.8-4.6 4.8-4.6l-4.8 1c-6.3 2.8-4.4 6.1-4.4 6.1 13.1 10.1 16.9 26.4 13.5 30.9-2 2.7-5.8 4.2-8.7 5l.2-.1c-3.3 1.2-6.9.5-9.5-1.7l1.6-2.1-2.4 1.3c-.5-.5-.9-1.1-1.3-1.7-.2-.3-.3-.6-.5-.8l2.2-1.9-2.8.8c-.6-1.2-1-2.3-1.2-3.8l3.3-.6-3.4-.9c0-1-.2-1.8-.3-2.6l2.5-1.7-3 .1c-.5-1.4-1.1-2.5-1.7-3.6.8-.2 3.8-1.4 3.8-1.4-.7.2-4.3.2-4.8-.2-.1-.1-.2-.3-.3-.4 1.7-.3 2.8-1.8 2.8-1.8-1.2.2-3.8.6-4.7.4-.1-.1-.3-.1-.4-.2 1-2.7 6.1-5.1 6.1-5.1-6.4.6-8.7 3.5-9.5 4.9-2.5 1.2-3.4 4-6.2 5.6-3.2 1.8-4.4 3.1-4.4 3.1-.3.4-.5.9-.6 1.3-.1.8.2 1.6.8 2l.3-1 1 .8.3-1.3.9.5.7-1c1.6 0 4-.1 4-.1-.8.6-1.3 1.7-1.5 2.2l-.6-.2-.2 1-.9-.1v1l-1-.1.1 1.1c-.3 1.7 1.9.5 1.9.5 3-2.3 5-4.3 6.7-3.7s1.6 3.2 1.7 4.4c.1 3 .4 4.4.9 6.2.6 2.5 1.9 4.4 3.6 6.3l1.9 1.6c-3.7 3 0 11 0 11l2.5 1-9.4-1s-2.1.3-3 1.9c-.9 1.6-2.5 2.8-3.4 4-.9 1.2.3 4.6.3 4.6L10 72s1.5-1.2 2.7-2.4c0 0-.6 2.2-.4 3.1.1.9.3 3 1.3 3.4l-.3-2.7s.4 0 1.3-1.2 1.3-3.1 1.3-3.1l2.7-.7S26 72 29.8 70.9c3.7-1 1.8-10.4 1.8-10.4s2.2 3.7 1.6 8.2c0 0 6.9-.2 10.7-.8l4.4-.6s4-9.9 10.3-10.7c0 0-7.7 5-8.3 12.5-.6 7.5 11.9 8.1 7.1 12.7-3.3 3.2-1 3.4-6 4-3.2.4-4.6 2.6-5.4 4 0 0 1.2-.8 3.2-.2 0 0 2.4-1.4 4-1.6 0 0-2.4 1.2-3.6 3.6-1.2 2.4-.2 3.6-.2 3.6s.8-3.4 2.4-3.4c1.6 0 1.4-2 6.1-1.8l1.8-.8s4.6.8 4.2 3.6c0 0 3.4-2.4-.6-4.4 0 0-1.4-1.8-3.2-1.8.1 0 1.9-5.2 4.4-6zM11 28.9s.2-.9 1.1-1.1c.9-.2 1.6.3 1.6.3s-.8 1.5-2.7.8z"></path><path d="M37.7 35.6c-.1 8.7-2.1 9.7-2.1 9.7s8.4-3 8.9-6 .9-6.3-1.3-11.2C41 23.2 36.9 16.3 30.8 11c0 0-1.7-1.7-.1-3.8l-2.2.8s-5.2 1.5-4.8 3.8c1.1 5.3 14.1 8.2 14 23.8z"></path></g><!----></svg>